<svg width="120" height="50" viewBox="0 0 120 50" fill="none" xmlns="http://www.w3.org/2000/svg">
<path d="M28.7094 29.502H22.7833C22.7833 29.502 22.3832 29.5977 21.9831 28.9635L12.1188 14.3879C12.1188 14.3879 11.9063 14.0528 11.4312 14.0169C10.9561 13.981 10.6435 14.364 10.5685 14.5435L8.15558 18.672C8.15558 18.672 7.80552 19.0789 8.15558 19.7012L18.345 35.4256C18.345 35.4256 18.595 35.9641 19.0826 35.988C19.5702 36.012 25.9964 35.988 25.9964 35.988C25.9964 35.988 26.4715 36.0239 26.809 35.4615C27.1466 34.8991 29.547 30.7705 29.547 30.7705C29.547 30.7705 29.9721 29.5259 28.7094 29.502Z" fill="#3766E8"/>
<path d="M44.1498 29.502H38.2237C38.2237 29.502 37.8236 29.5977 37.4235 28.9635L27.5717 14.3879C27.5717 14.3879 27.3591 14.0528 26.8841 14.0169C26.409 13.981 26.0964 14.364 26.0214 14.5435L23.6084 18.672C23.6084 18.672 23.2584 19.0789 23.6084 19.7012L33.7978 35.4256C33.7978 35.4256 34.0479 35.9641 34.5355 35.988C35.0231 36.012 41.4493 35.988 41.4493 35.988C41.4493 35.988 41.9243 36.0239 42.2619 35.4615C42.5995 34.8991 44.9999 30.7705 44.9999 30.7705C44.9999 30.7705 45.4125 29.5259 44.1498 29.502Z" fill="#3766E8"/>
<path d="M40.9992 14.4477L38.6612 18.5045C38.6612 18.5045 38.1861 19.0789 38.5112 19.5935C38.8363 20.108 44.3623 28.6165 44.3623 28.6165C44.3623 28.6165 44.6248 29.1789 45.225 29.1669C45.8126 29.143 45.9626 28.8199 46.1626 28.4489C46.3627 28.0899 48.5881 24.2246 48.5881 24.2246C48.5881 24.2246 48.8881 23.7819 48.5381 23.2792C48.188 22.7647 42.5745 14.4477 42.5745 14.4477C42.5745 14.4477 42.3244 13.9451 41.6993 14.0049C41.1867 14.0648 40.9992 14.4477 40.9992 14.4477Z" fill="#3766E8"/>
<path d="M81.9443 25.0862C78.7937 25.0862 76.2432 27.5275 76.2432 30.5431C76.2432 33.5588 78.7937 36 81.9443 36C85.0948 36 87.6453 33.5588 87.6453 30.5431C87.6453 27.5275 85.0823 25.0862 81.9443 25.0862ZM81.9443 35.1982C79.2563 35.1982 77.0809 33.116 77.0809 30.5431C77.0809 27.9702 79.2563 25.888 81.9443 25.888C84.6323 25.888 86.8077 27.9702 86.8077 30.5431C86.8077 33.104 84.6323 35.1982 81.9443 35.1982Z" fill="#3766E8"/>
<path d="M56.7646 25.0862C53.614 25.0862 51.0635 27.5275 51.0635 30.5431C51.0635 33.5588 53.614 36 56.7646 36C59.9152 36 62.4656 33.5588 62.4656 30.5431C62.4531 27.5275 59.9027 25.0862 56.7646 25.0862ZM56.7646 35.1982C54.0766 35.1982 51.9012 33.116 51.9012 30.5431C51.9012 27.9702 54.0766 25.888 56.7646 25.888C59.4526 25.888 61.628 27.9702 61.628 30.5431C61.628 33.104 59.4526 35.1982 56.7646 35.1982Z" fill="#3766E8"/>
<path d="M69.6545 25.0862C67.6416 25.0862 65.8788 26.0915 64.8661 27.5993V21.9749C64.8661 21.7355 64.6661 21.5441 64.416 21.5441C64.166 21.5441 63.9659 21.7355 63.9659 21.9749V35.5572C63.9659 35.7966 64.166 35.988 64.416 35.988C64.6661 35.988 64.8661 35.7966 64.8661 35.5572V33.475C65.8788 34.9828 67.6416 35.988 69.6545 35.988C72.8051 35.988 75.3555 33.5468 75.3555 30.5312C75.343 27.5275 72.7926 25.0862 69.6545 25.0862ZM69.6545 35.1982C67.2415 35.1982 65.2537 33.5229 64.8661 31.321V29.7653C65.2537 27.5634 67.254 25.888 69.6545 25.888C72.3425 25.888 74.5179 27.9703 74.5179 30.5431C74.5179 33.104 72.3425 35.1982 69.6545 35.1982Z" fill="#3766E8"/>
<path d="M109.724 30.5312C109.724 27.5155 107.174 25.0743 104.023 25.0743C100.873 25.0743 98.3223 27.5155 98.3223 30.5312C98.3223 33.5468 100.873 35.988 104.023 35.988C106.086 35.988 107.887 34.935 108.887 33.3553V35.5931C108.887 35.8085 109.074 35.988 109.299 35.988C109.524 35.988 109.712 35.8085 109.712 35.5931V31.0577C109.712 31.0218 109.699 30.9859 109.687 30.95C109.712 30.8184 109.724 30.6748 109.724 30.5312ZM104.023 35.1982C101.335 35.1982 99.1599 33.116 99.1599 30.5431C99.1599 27.9703 101.335 25.888 104.023 25.888C106.711 25.888 108.887 27.9703 108.887 30.5431C108.887 33.104 106.711 35.1982 104.023 35.1982Z" fill="#3766E8"/>
<path d="M93.1088 25.17H91.321V21.8193C91.321 21.58 91.121 21.3885 90.8709 21.3885C90.6209 21.3885 90.4208 21.58 90.4208 21.8193V25.182H88.633C88.4205 25.182 88.2454 25.3495 88.2454 25.5529C88.2454 25.7564 88.4205 25.9239 88.633 25.9239H90.4208V35.5692C90.4208 35.8085 90.6209 36 90.8709 36C91.121 36 91.321 35.8085 91.321 35.5692V25.912H93.1088C93.3214 25.912 93.4964 25.7444 93.4964 25.541C93.4964 25.3375 93.3214 25.17 93.1088 25.17Z" fill="#3766E8"/>
<path d="M112.85 35.988H112C111.987 35.988 111.975 35.9761 111.975 35.9641V25.2298C111.975 25.2179 111.987 25.2059 112 25.2059H112.85C112.862 25.2059 112.875 25.2179 112.875 25.2298V35.9641C112.875 35.9761 112.862 35.988 112.85 35.988Z" fill="#3766E8"/>
<path d="M112.425 23.3151C112.743 23.3151 113 23.0687 113 22.7647C113 22.4607 112.743 22.2142 112.425 22.2142C112.107 22.2142 111.85 22.4607 111.85 22.7647C111.85 23.0687 112.107 23.3151 112.425 23.3151Z" fill="#3766E8"/>
<path d="M95.9093 36C96.227 36 96.4844 35.7535 96.4844 35.4495C96.4844 35.1455 96.227 34.8991 95.9093 34.8991C95.5917 34.8991 95.3342 35.1455 95.3342 35.4495C95.3342 35.7535 95.5917 36 95.9093 36Z" fill="#3766E8"/>
</svg>
